<?xml version="1.0" encoding="UTF-8" standalone="no"?>
<svg
   xmlns:dc="http://purl.org/dc/elements/1.1/"
   xmlns:cc="http://creativecommons.org/ns#"
   xmlns:rdf="http://www.w3.org/1999/02/22-rdf-syntax-ns#"
   xmlns:svg="http://www.w3.org/2000/svg"
   xmlns="http://www.w3.org/2000/svg"
   xmlns:sodipodi="http://sodipodi.sourceforge.net/DTD/sodipodi-0.dtd"
   xmlns:inkscape="http://www.inkscape.org/namespaces/inkscape"
   width="138.26622"
   height="97.414574"
   viewBox="0 0 138.26622 97.414574"
   version="1.1"
   id="svg3797"
   sodipodi:docname="yt.svg"
   inkscape:version="0.92.5 (2060ec1f9f, 2020-04-08)">
  <metadata
     id="metadata3801">
    <rdf:RDF>
      <cc:Work
         rdf:about="">
        <dc:format>image/svg+xml</dc:format>
        <dc:type
           rdf:resource="http://purl.org/dc/dcmitype/StillImage" />
        <dc:title></dc:title>
      </cc:Work>
    </rdf:RDF>
  </metadata>
  <sodipodi:namedview
     pagecolor="#ffffff"
     bordercolor="#666666"
     borderopacity="1"
     objecttolerance="10"
     gridtolerance="10"
     guidetolerance="10"
     inkscape:pageopacity="0"
     inkscape:pageshadow="2"
     inkscape:window-width="3840"
     inkscape:window-height="1963"
     id="namedview3799"
     showgrid="false"
     inkscape:zoom="7.124"
     inkscape:cx="54.76025"
     inkscape:cy="-4.3793273"
     inkscape:window-x="0"
     inkscape:window-y="27"
     inkscape:window-maximized="1"
     inkscape:current-layer="svg3797" />
  <defs
     id="defs3788">
    <clipPath
       id="b">
      <rect
         width="500"
         height="500"
         id="rect3785"
         x="0"
         y="0" />
    </clipPath>
  </defs>
  <g
     id="a"
     clip-path="url(#b)"
     transform="matrix(0.50574301,0,0,0.50574301,-57.293839,-77.728213)">
    <g
       transform="translate(108.062,121.634)"
       id="g3794">
      <path
         d="M 270.276,63.466 A 33.667,33.667 0 0 0 246.593,39.631 C 225.65,34 141.938,34 141.938,34 c 0,0 -83.711,0 -104.654,5.631 A 33.667,33.667 0 0 0 13.6,63.466 C 8,84.5 8,128.366 8,128.366 c 0,0 0,43.865 5.6,64.9 A 33.667,33.667 0 0 0 37.284,217.1 c 20.943,5.631 104.655,5.631 104.655,5.631 0,0 83.711,0 104.655,-5.631 a 33.667,33.667 0 0 0 23.683,-23.835 c 5.6,-21.034 5.6,-64.9 5.6,-64.9 0,0 0,-43.865 -5.601,-64.899 z"
         id="path3790"
         inkscape:connector-curvature="0"
         style="fill:#ff0000" />
      <path
         d="M 78,149.493 148.013,109.662 78,69.83 Z"
         transform="translate(36.542,18.704)"
         id="path3792"
         inkscape:connector-curvature="0"
         style="fill:#ffffff" />
    </g>
  </g>
</svg>
